HIERARCHY
ROOT Hips
{
 OFFSET 0.000000 0.000000 0.000000
 CHANNELS 6 Xposition Yposition Zposition Yrotation Xrotation Zrotation
 JOINT Chest
 {
  OFFSET 0.000000 11.395451 -0.039534
  CHANNELS 3 Yrotation Xrotation Zrotation
  JOINT Chest2
  {
   OFFSET 0.000000 9.398669 0.071813
   CHANNELS 3 Yrotation Xrotation Zrotation
   JOINT Chest3
   {
    OFFSET 0.000000 8.489801 0.000000
    CHANNELS 3 Yrotation Xrotation Zrotation
    JOINT Chest4
    {
     OFFSET 0.000000 8.489801 0.000000
     CHANNELS 3 Yrotation Xrotation Zrotation
     JOINT Neck
     {
      OFFSET 0.000000 12.404889 0.000000
      CHANNELS 3 Yrotation Xrotation Zrotation
      JOINT Head
      {
       OFFSET 0.000000 8.903270 0.092239
       CHANNELS 3 Yrotation Xrotation Zrotation
       End Site
       {
        OFFSET 0.000000 17.592497 0.007158
       }
      }
     }
     JOINT RightCollar
     {
      OFFSET -3.196775 6.966722 0.000000
      CHANNELS 3 Yrotation Xrotation Zrotation
      JOINT RightShoulder
      {
       OFFSET -15.955896 0.000000 0.000000
       CHANNELS 3 Yrotation Xrotation Zrotation
       JOINT RightElbow
       {
        OFFSET -24.792472 0.000000 0.000000
        CHANNELS 3 Yrotation Xrotation Zrotation
        JOINT RightWrist
        {
         OFFSET -20.900115 0.000000 0.025002
         CHANNELS 3 Yrotation Xrotation Zrotation
         End Site
         {
          OFFSET -16.056692 0.000000 0.000000
         }
        }
       }
      }
     }
     JOINT LeftCollar
     {
      OFFSET 3.196775 6.966722 0.000000
      CHANNELS 3 Yrotation Xrotation Zrotation
      JOINT LeftShoulder
      {
       OFFSET 15.955896 0.000000 0.000000
       CHANNELS 3 Yrotation Xrotation Zrotation
       JOINT LeftElbow
       {
        OFFSET 24.792472 0.000000 0.000000
        CHANNELS 3 Yrotation Xrotation Zrotation
        JOINT LeftWrist
        {
         OFFSET 20.900115 0.000000 0.025002
         CHANNELS 3 Yrotation Xrotation Zrotation
         End Site
         {
          OFFSET 16.056692 0.000000 0.000000
         }
        }
       }
      }
     }
    }
   }
  }
 }
 JOINT RightHip
 {
  OFFSET -9.568995 0.193718 0.019767
  CHANNELS 3 Yrotation Xrotation Zrotation
  JOINT RightKnee
  {
   OFFSET 0.000000 -56.649296 0.015402
   CHANNELS 3 Yrotation Xrotation Zrotation
   JOINT RightAnkle
   {
    OFFSET 0.000000 -41.365147 0.021264
    CHANNELS 3 Yrotation Xrotation Zrotation
    JOINT RightToe
    {
     OFFSET 0.000000 -7.465940 17.672538
     CHANNELS 3 Yrotation Xrotation Zrotation
     End Site
     {
      OFFSET 0.000000 -1.736315 7.837145
     }
    }
   }
  }
 }
 JOINT LeftHip
 {
  OFFSET 9.568995 0.193718 0.019767
  CHANNELS 3 Yrotation Xrotation Zrotation
  JOINT LeftKnee
  {
   OFFSET 0.000000 -56.649296 0.015402
   CHANNELS 3 Yrotation Xrotation Zrotation
   JOINT LeftAnkle
   {
    OFFSET 0.000000 -41.365147 0.021264
    CHANNELS 3 Yrotation Xrotation Zrotation
    JOINT LeftToe
    {
     OFFSET 0.000000 -7.465940 17.672538
     CHANNELS 3 Yrotation Xrotation Zrotation
     End Site
     {
      OFFSET 0.000000 -1.736315 7.837145
     }
    }
   }
  }
 }
}
MOTION
Frames: 17
Frame Time: 0.016667
51.473564 106.471881 193.218611 -23.358411 -8.964308 -1.211953 -1.612537 3.329744 0.046899 -0.716708 1.479718 0.032409 -0.716708 1.479718 0.032409 -0.537580 1.109752 0.026041 -5.436733 18.102199 0.158493 -10.054997 -2.378052 2.091615 0.128494 2.803196 10.328184 4.164071 -7.111801 74.823857 -2.719637 4.576050 -1.954754 -4.080720 -0.169019 2.319857 -4.208957 3.774863 -8.253831 7.692898 -7.652409 -73.164682 4.560612 13.153977 1.521699 7.042943 -2.806106 -6.666276 6.549066 9.983865 0.242729 -1.372482 7.286550 0.122784 0.033596 -7.818413 1.712116 -0.000855 -0.630795 0.155394 3.865369 10.503382 -0.395281 -0.291016 5.434038 0.211004 0.109353 -8.398238 0.934643 0.000000 -0.000000 0.000000
51.430046 106.488786 193.085372 -23.127534 -8.957711 -1.191009 -1.604739 3.344646 0.035908 -0.713165 1.486379 0.027522 -0.713165 1.486380 0.027522 -0.534911 1.114755 0.022375 -5.488452 18.080706 0.174373 -10.156507 -2.413050 2.139385 0.113179 2.803259 10.192116 4.298881 -7.207193 74.932535 -2.836000 4.362774 -2.048820 -4.074960 -0.208342 2.206842 -4.160561 3.787551 -8.151595 7.723530 -7.642363 -73.177206 4.063789 12.720513 1.271537 6.806644 -3.003485 -6.396284 6.546027 9.892680 0.328016 -1.608966 7.368772 0.082085 0.051882 -7.821883 1.633869 -0.000898 -0.618084 0.166562 3.674535 10.388866 -0.403289 -0.302996 5.465441 0.191703 0.076289 -8.273653 0.934129 0.000000 0.000000 0.000000
51.386528 106.505691 192.952134 -22.896657 -8.951198 -1.170039 -1.596956 3.359600 0.024977 -0.709626 1.493064 0.022661 -0.709626 1.493064 0.022661 -0.532245 1.119774 0.018729 -5.540181 18.059166 0.190212 -10.258069 -2.448031 2.187118 0.097773 2.803879 10.056056 4.433547 -7.303621 75.040397 -2.952558 4.149484 -2.142121 -4.069470 -0.247680 2.093817 -4.112072 3.799706 -8.049320 7.754137 -7.632205 -73.189669 3.571045 12.284679 1.022441 6.565440 -3.197456 -6.127130 6.542870 9.801148 0.412913 -1.845644 7.450567 0.040999 0.070190 -7.825307 1.555620 -0.000939 -0.605377 0.177734 3.483816 10.274166 -0.411376 -0.314970 5.496847 0.172400 0.043188 -8.149078 0.933578 0.000000 -0.000000 0.000000
51.340823 106.521747 192.820318 -22.663279 -8.940573 -1.152502 -1.590149 3.371415 0.012193 -0.706507 1.498359 0.016973 -0.706507 1.498359 0.016973 -0.529891 1.123751 0.014462 -5.588009 18.040848 0.206772 -10.352546 -2.477181 2.234667 0.083573 2.803903 9.937008 4.575262 -7.395804 75.148434 -3.049107 3.965201 -2.225778 -4.064930 -0.277605 1.999497 -4.081806 3.830289 -7.957545 7.736272 -7.648389 -73.221079 3.099165 11.922920 0.797786 6.351882 -3.361753 -5.893737 6.527724 9.707514 0.493820 -2.064293 7.538265 -0.010461 0.071760 -7.830023 1.489639 -0.001013 -0.599950 0.193496 3.319845 10.158259 -0.408299 -0.343995 5.532529 0.157315 0.003009 -8.035757 0.927591 0.000000 0.000000 0.000000
51.290216 106.536694 192.689205 -22.420302 -8.922436 -1.141847 -1.585549 3.378248 -0.003686 -0.704346 1.501450 0.009909 -0.704346 1.501450 0.009909 -0.528254 1.126078 0.009162 -5.631774 18.028675 0.226769 -10.440360 -2.494888 2.286713 0.070480 2.802682 9.844907 4.734502 -7.482731 75.256383 -3.127231 3.818164 -2.301633 -4.062766 -0.292441 1.933643 -4.080175 3.893149 -7.878566 7.643902 -7.707157 -73.277958 2.652997 11.668365 0.610327 6.180179 -3.489691 -5.707140 6.493490 9.608255 0.573853 -2.256256 7.639819 -0.085199 0.040918 -7.838787 1.445361 -0.001156 -0.606771 0.218284 3.191172 10.038741 -0.386695 -0.398673 5.575243 0.150504 -0.046842 -7.938793 0.910312 0.000000 0.000000 0.000000
51.237422 106.550792 192.559514 -22.174833 -8.900134 -1.134555 -1.581920 3.381968 -0.021465 -0.702604 1.503164 0.001997 -0.702604 1.503164 0.001997 -0.526927 1.127372 0.003226 -5.671633 18.019726 0.247512 -10.521060 -2.506779 2.338593 0.058651 2.800630 9.769803 4.900870 -7.565476 75.364538 -3.185389 3.700180 -2.368343 -4.061507 -0.297793 1.886493 -4.096664 3.974699 -7.809769 7.503148 -7.792324 -73.353833 2.224418 11.489329 0.446981 6.039720 -3.589593 -5.555021 6.447287 9.506933 0.649924 -2.430235 7.747481 -0.170128 -0.006694 -7.848895 1.413375 -0.001342 -0.620865 0.247659 3.089118 9.918032 -0.354133 -0.470456 5.622165 0.147842 -0.103809 -7.853110 0.887612 0.000000 -0.000000 0.000000
51.188396 106.563969 192.434819 -21.945670 -8.879622 -1.123648 -1.576512 3.384945 -0.039416 -0.700070 1.504548 -0.006007 -0.700070 1.504548 -0.006007 -0.525008 1.128420 -0.002781 -5.704163 18.008533 0.261630 -10.586221 -2.523892 2.376099 0.049777 2.798147 9.698875 5.050265 -7.641768 75.474907 -3.198587 3.615685 -2.412841 -4.057503 -0.301080 1.847431 -4.118251 4.052869 -7.754350 7.343839 -7.881659 -73.448392 1.809649 11.365450 0.292176 5.927220 -3.658399 -5.436913 6.398628 9.412526 0.709202 -2.593954 7.844078 -0.236224 -0.040863 -7.853530 1.377645 -0.001511 -0.634598 0.272883 3.014467 9.802403 -0.321783 -0.550673 5.669203 0.141256 -0.167185 -7.774685 0.871672 0.000000 0.000000 0.000000
51.146124 106.576055 192.317080 -21.741085 -8.864387 -1.105512 -1.566460 3.388666 -0.057185 -0.695474 1.506261 -0.013961 -0.695474 1.506262 -0.013961 -0.521541 1.129714 -0.008756 -5.728761 17.993128 0.265588 -10.633676 -2.550290 2.392717 0.046010 2.795176 9.627214 5.168410 -7.711685 75.587816 -3.158524 3.575638 -2.431394 -4.051040 -0.301706 1.817559 -4.142390 4.120465 -7.715293 7.171147 -7.972758 -73.563087 1.414080 11.305381 0.144866 5.848919 -3.687558 -5.357808 6.352754 9.328867 0.742509 -2.754694 7.926164 -0.267106 -0.045092 -7.851326 1.329999 -0.001637 -0.645843 0.290412 2.981276 9.694641 -0.292235 -0.641748 5.718298 0.126829 -0.244490 -7.705813 0.870761 -0.000000 0.000000 -0.000000
51.107621 106.587221 192.204338 -21.552796 -8.850980 -1.083814 -1.554627 3.391638 -0.075133 -0.690085 1.507641 -0.022011 -0.690085 1.507641 -0.022011 -0.517480 1.130758 -0.014804 -5.746050 17.975542 0.262877 -10.665611 -2.581873 2.394888 0.045215 2.791707 9.559717 5.269601 -7.774868 75.703297 -3.073264 3.569111 -2.428492 -4.041723 -0.300243 1.795742 -4.171749 4.184881 -7.689746 6.979902 -8.068075 -73.696308 1.031522 11.301209 0.005337 5.799824 -3.686880 -5.313068 6.304534 9.252344 0.759201 -2.905021 7.997280 -0.279136 -0.035882 -7.843630 1.278590 -0.001741 -0.656732 0.303787 2.975484 9.592023 -0.262950 -0.741246 5.767515 0.108459 -0.328146 -7.644196 0.876573 -0.000000 0.000000 -0.000000
51.069886 106.597914 192.094287 -21.374758 -8.834974 -1.062521 -1.546862 3.391729 -0.092604 -0.686507 1.507738 -0.029829 -0.686507 1.507738 -0.029829 -0.514777 1.130839 -0.020676 -5.754466 17.956321 0.256641 -10.680150 -2.617441 2.387816 0.042654 2.788235 9.498276 5.372598 -7.828343 75.823034 -2.942213 3.567702 -2.403712 -4.025001 -0.305769 1.767896 -4.201204 4.245888 -7.672289 6.784392 -8.152610 -73.843315 0.641489 11.307277 -0.139597 5.759101 -3.680450 -5.287921 6.247921 9.180773 0.774299 -3.030518 8.050668 -0.292394 -0.032518 -7.827725 1.231845 -0.001830 -0.666033 0.314897 2.955769 9.492592 -0.237238 -0.833169 5.806988 0.089813 -0.394802 -7.578909 0.876435 0.000000 0.000000 0.000000
51.031732 106.608320 191.985896 -21.202798 -8.815419 -1.042827 -1.546727 3.388286 -0.109401 -0.686326 1.506263 -0.037303 -0.686326 1.506263 -0.037303 -0.514623 1.129741 -0.026284 -5.750953 17.936236 0.246613 -10.671531 -2.655814 2.369939 0.036690 2.785800 9.443873 5.488536 -7.872345 75.947877 -2.761078 3.553654 -2.355933 -3.996043 -0.325150 1.726498 -4.230534 4.306865 -7.662036 6.585175 -8.224433 -74.006460 0.237036 11.303647 -0.294397 5.722649 -3.674176 -5.283077 6.183398 9.115801 0.794687 -3.127585 8.079609 -0.316241 -0.045162 -7.799645 1.195963 -0.001903 -0.674590 0.322840 2.904982 9.395632 -0.216614 -0.909422 5.833972 0.071964 -0.436860 -7.505351 0.864939 0.000000 -0.000000 -0.000000
50.994346 106.618253 191.880196 -21.041090 -8.793247 -1.023519 -1.550653 3.381932 -0.125745 -0.687954 1.503495 -0.044557 -0.687954 1.503494 -0.044557 -0.515826 1.127673 -0.031723 -5.738565 17.914534 0.233053 -10.645489 -2.698157 2.342788 0.028975 2.783236 9.395532 5.606321 -7.906580 76.077201 -2.533884 3.544639 -2.286871 -3.959697 -0.351235 1.678797 -4.260007 4.364508 -7.659966 6.381615 -8.285637 -74.183318 -0.175011 11.310570 -0.454189 5.694589 -3.662677 -5.297870 6.110486 9.055779 0.813592 -3.199738 8.090896 -0.341176 -0.063655 -7.763372 1.164739 -0.001958 -0.681558 0.328518 2.840312 9.301878 -0.199370 -0.978066 5.851225 0.053849 -0.461941 -7.428097 0.847544 0.000000 0.000000 0.000000
50.958295 106.627603 191.777986 -20.896116 -8.766829 -1.004926 -1.553786 3.372446 -0.141626 -0.689234 1.499333 -0.051621 -0.689234 1.499333 -0.051621 -0.516769 1.124560 -0.037022 -5.724893 17.889444 0.219890 -10.617402 -2.746830 2.316216 0.019702 2.777723 9.352203 5.711385 -7.927292 76.210506 -2.272531 3.565383 -2.200094 -3.926013 -0.372100 1.632948 -4.285224 4.408513 -7.663483 6.186194 -8.327155 -74.362173 -0.594319 11.342376 -0.618054 5.666123 -3.652525 -5.315139 6.021677 8.993529 0.825553 -3.243267 8.098018 -0.358944 -0.076788 -7.728132 1.128003 -0.002006 -0.683172 0.336523 2.771955 9.211543 -0.183899 -1.047330 5.857130 0.035915 -0.469544 -7.349984 0.827890 0.000000 0.000000 0.000000
50.924074 106.636164 191.680377 -20.772468 -8.734282 -0.986919 -1.553797 3.358208 -0.157143 -0.689134 1.493057 -0.058562 -0.689133 1.493057 -0.058562 -0.516678 1.119860 -0.042235 -5.710824 17.858968 0.208314 -10.589413 -2.805348 2.292862 0.006794 2.766350 9.313562 5.798464 -7.931319 76.348725 -1.977925 3.630152 -2.094425 -3.898813 -0.383011 1.589343 -4.302776 4.430103 -7.672333 6.001483 -8.339033 -74.540527 -1.024263 11.401848 -0.789860 5.634947 -3.647133 -5.329456 5.900171 8.926997 0.824425 -3.242243 8.102948 -0.363440 -0.078068 -7.697257 1.079518 -0.002046 -0.676252 0.349409 2.697409 9.126145 -0.170623 -1.121499 5.846048 0.017237 -0.451490 -7.270183 0.805191 0.000000 -0.000000 0.000000
50.891188 106.644141 191.586258 -20.665552 -8.697465 -0.969621 -1.553012 3.340825 -0.172214 -0.688685 1.485381 -0.065322 -0.688685 1.485381 -0.065322 -0.516326 1.114111 -0.047314 -5.695474 17.825088 0.197128 -10.559376 -2.870219 2.270068 -0.007664 2.751964 9.279914 5.872872 -7.921593 76.491175 -1.649021 3.724509 -1.970364 -3.874317 -0.388696 1.547748 -4.316095 4.438079 -7.686887 5.824923 -8.331187 -74.721147 -1.461545 11.486316 -0.966346 5.603298 -3.643074 -5.346128 5.762815 8.858234 0.816543 -3.212590 8.103784 -0.360706 -0.073985 -7.667400 1.025533 -0.002073 -0.663979 0.364624 2.619190 9.044191 -0.158973 -1.196250 5.823595 -0.001223 -0.415970 -7.189497 0.780284 0.000000 0.000000 0.000000
50.858715 106.652037 191.493086 -20.568068 -8.660361 -0.953742 -1.553554 3.324925 -0.186537 -0.688832 1.478363 -0.071734 -0.688832 1.478363 -0.071734 -0.516422 1.108855 -0.052131 -5.683779 17.791987 0.186691 -10.536261 -2.933317 2.249776 -0.017240 2.740400 9.251163 5.935936 -7.903465 76.634894 -1.294862 3.830189 -1.833806 -3.851134 -0.391666 1.515531 -4.331033 4.448491 -7.705455 5.661283 -8.324254 -74.900183 -1.895779 11.601868 -1.136374 5.569226 -3.636381 -5.364031 5.652549 8.786279 0.815045 -3.198417 8.108165 -0.360747 -0.072806 -7.637767 0.974598 -0.002089 -0.652137 0.379110 2.554996 8.961394 -0.145953 -1.266920 5.805046 -0.016224 -0.387018 -7.113236 0.759207 0.000000 0.000000 0.000000
50.826842 106.660092 191.399639 -20.477457 -8.624449 -0.939128 -1.556837 3.312534 -0.200078 -0.690201 1.472902 -0.077768 -0.690201 1.472902 -0.077768 -0.517435 1.104766 -0.056659 -5.677273 17.761027 0.176711 -10.522720 -2.992037 2.231851 -0.020893 2.734183 9.225362 5.988731 -7.877592 76.782237 -0.907477 3.936278 -1.683040 -3.828321 -0.391650 1.496896 -4.349885 4.467492 -7.729333 5.517385 -8.326030 -75.079381 -2.329974 11.764793 -1.297598 5.530380 -3.625700 -5.380296 5.597796 8.710571 0.826861 -3.229299 8.118467 -0.369437 -0.077150 -7.607765 0.930703 -0.002100 -0.642582 0.392267 2.513309 8.876743 -0.132179 -1.329690 5.794246 -0.023779 -0.376423 -7.041989 0.744908 0.000000 -0.000000 -0.000000
